# xmcd
#
# Track frame offsets: 
#        182
#        14865
#        29402
#        42850
#        57732
#        71950
#        85172
#        98502
#        112760
#        126490
#        137620
#        151115
#        164030
#        176997
#        186867
#        200262
#        211927
#        226570
#        246237
#
# Disc length: 3502 seconds
#
# Revision: 5
# Processed by: cddbd v1.5.2PL0 Copyright (c) Steve Scherf et al.
# Submitted via: ExactAudioCopy v0.99pb5
#
DISCID=0e0dac13
DTITLE=Various Artist - Les Plus Grands Moments Country - Disque 2
DYEAR=1989
DGENRE=Country
TTITLE0=Keith Stegall - California
TTITLE1=Rosanne Cash - Seven Year Ache
TTITLE2=Ricky Skaggs - Crying My Heart Out Over You
TTITLE3=Charly McClain - In Your Eyes
TTITLE4=Willie Nelson - Heart Of Gold
TTITLE5=Moe Bandy - That Horse That You Can't Ride
TTITLE6=Tammy Wynette - D.I.V.O.R.C.E.
TTITLE7=Sweethearts Of The Rodeo - So Sad (To Watch Good Love Go Bad)
TTITLE8=Gene Watson - Rollin'Home
TTITLE9=Roy Orbinson - Blue Bayou
TTITLE10=Billy Swan - I Can Help
TTITLE11=The O'Kanes - Oh Darlin' (Why Don't You Care For Me No More)
TTITLE12=Lynn Anderson - Rose Garden
TTITLE13=George Jones and Willie Nelson - I Gotta Get Drunk
TTITLE14=Janie Fricke - Homeward Bound
TTITLE15=George Jones - White Lightnin'
TTITLE16=Crystal Gayle - If You Ever Change Your Mind
TTITLE17=Marty Robbins - El Paso
TTITLE18=Johnny Cash - (Ghost) Riders In The Sky
EXTD=ID3G: 2
EXTT0=
EXTT1=
EXTT2=
EXTT3=
EXTT4=
EXTT5=
EXTT6=
EXTT7=
EXTT8=
EXTT9=
EXTT10=
EXTT11=
EXTT12=
EXTT13=
EXTT14=
EXTT15=
EXTT16=
EXTT17=
EXTT18=
PLAYORDER=
